<svg width="100" height="100" viewBox="0 0 100 100" fill="none" xmlns="http://www.w3.org/2000/svg">
<path fill-rule="evenodd" clip-rule="evenodd" d="M50 1.18115C31.6461 1.18115 16.7617 16.0616 16.7617 34.4194C16.7617 49.1046 26.2852 61.564 39.4922 65.9585C41.1531 66.2663 41.7633 65.2374 41.7633 64.3593C41.7633 63.5671 41.732 60.9483 41.718 58.1718C32.4703 60.1819 30.5195 54.2499 30.5195 54.2499C29.0078 50.4077 26.8289 49.3858 26.8289 49.3858C23.8133 47.3233 27.0555 47.3655 27.0555 47.3655C30.3938 47.5999 32.1516 50.7913 32.1516 50.7913C35.1156 55.8726 39.9273 54.403 41.8234 53.5538C42.1227 51.4054 42.9836 49.9382 43.9344 49.1085C36.5516 48.2687 28.7906 45.4179 28.7906 32.6819C28.7906 29.053 30.0891 26.0882 32.2156 23.7601C31.8703 22.9226 30.7328 19.5413 32.5375 14.9632C32.5375 14.9632 35.3281 14.071 41.6781 18.3718C44.3305 17.6351 47.1742 17.2655 49.9984 17.253C52.8234 17.2663 55.6687 17.6358 58.325 18.3718C64.6687 14.0718 67.4562 14.964 67.4562 14.964C69.2656 19.5421 68.1281 22.9226 67.7828 23.7608C69.9141 26.0874 71.2031 29.053 71.2031 32.6827C71.2031 45.4483 63.4273 48.2593 56.0258 49.0812C57.218 50.1124 58.2805 52.1358 58.2805 55.2374C58.2805 59.6843 58.243 63.2632 58.243 64.3577C58.243 65.2405 58.8414 66.278 60.5258 65.9515C73.7258 61.5515 83.2367 49.0968 83.2367 34.4163C83.2383 16.0624 68.357 1.18115 50 1.18115Z" fill="white"/>
<path d="M29.3514 48.9031C29.2772 49.0687 29.0171 49.1179 28.7811 49.0046C28.5389 48.8953 28.4046 48.671 28.4827 48.5046C28.553 48.3359 28.8139 48.2882 29.0553 48.4015C29.2975 48.5109 29.435 48.7374 29.3522 48.9031H29.3514ZM30.6975 50.4062C30.5389 50.5523 30.2288 50.4843 30.0178 50.2515C29.8007 50.0195 29.76 49.7093 29.921 49.5609C30.0835 49.414 30.3843 49.4828 30.6007 49.7148C30.8194 49.9492 30.8624 50.2562 30.6968 50.4054L30.6975 50.4062ZM32.0077 52.3187C31.8046 52.4609 31.471 52.3281 31.2655 52.032C31.0608 51.7374 31.0608 51.3835 31.2694 51.2406C31.4757 51.0984 31.8038 51.2265 32.0116 51.5195C32.2163 51.8203 32.2163 52.1757 32.0077 52.3195V52.3187ZM33.803 54.1687C33.621 54.3695 33.2327 54.3156 32.9491 54.0413C32.6585 53.7734 32.578 53.3929 32.76 53.1921C32.9452 52.9914 33.335 53.0476 33.621 53.3195C33.91 53.5867 33.9975 53.9679 33.803 54.1679V54.1687ZM36.2811 55.2421C36.1999 55.5031 35.8264 55.621 35.4499 55.5109C35.0733 55.3968 34.828 55.0921 34.903 54.8296C34.9811 54.5671 35.3577 54.4445 35.7366 54.5624C36.1116 54.6749 36.3577 54.9765 36.2803 55.2421H36.2811ZM38.9999 55.4413C39.01 55.7148 38.6905 55.9429 38.2952 55.9476C37.8983 55.957 37.5764 55.7351 37.5718 55.4648C37.5718 55.1882 37.8843 54.9632 38.2811 54.957C38.6764 54.9492 38.9999 55.1695 38.9999 55.4413ZM41.5311 55.0109C41.578 55.2781 41.3046 55.5531 40.9116 55.6257C40.5257 55.6976 40.1694 55.532 40.1194 55.2663C40.0725 54.9929 40.3514 54.7195 40.7366 54.6476C41.1296 54.5788 41.4811 54.7398 41.5311 55.0117V55.0109Z" fill="white"/>
<path d="M19.4181 84.6108H11.0587C10.9551 84.6108 10.8557 84.652 10.7825 84.7253C10.7092 84.7985 10.6681 84.8979 10.6681 85.0015V89.089C10.6681 89.1926 10.7092 89.2919 10.7825 89.3652C10.8557 89.4384 10.9551 89.4796 11.0587 89.4796H14.3188V94.5577C14.3188 94.5577 13.5868 94.8077 11.561 94.8077C9.17354 94.8077 5.83682 93.9358 5.83682 86.5983C5.83682 79.2601 9.31182 78.2937 12.5743 78.2937C15.3978 78.2937 16.6134 78.7905 17.3884 79.0304C17.6306 79.1038 17.8571 78.8616 17.8571 78.646L18.7892 74.6968C18.7907 74.6376 18.7778 74.579 18.7517 74.526C18.7256 74.4729 18.6869 74.427 18.6392 74.3921C18.3243 74.1671 16.4071 73.0952 11.5626 73.0952C5.98135 73.0952 0.256348 75.4687 0.256348 86.8843C0.256348 98.2983 6.81104 99.9991 12.3345 99.9991C16.9079 99.9991 19.6821 98.0444 19.6821 98.0444C19.7962 97.9819 19.8087 97.8218 19.8087 97.7476V85.0007C19.8087 84.8971 19.7675 84.7977 19.6943 84.7245C19.621 84.6512 19.5217 84.6101 19.4181 84.6101V84.6108ZM62.1142 74.0702H57.4063C57.355 74.0704 57.3042 74.0808 57.2568 74.1006C57.2094 74.1205 57.1665 74.1495 57.1303 74.186C57.0942 74.2225 57.0656 74.2658 57.0462 74.3133C57.0268 74.3609 57.017 74.4118 57.0173 74.4632L57.0188 83.5601H49.6813V74.4632C49.6817 74.4119 49.6719 74.361 49.6525 74.3135C49.6332 74.266 49.6047 74.2228 49.5686 74.1863C49.5325 74.1498 49.4897 74.1208 49.4424 74.1008C49.3951 74.0809 49.3444 74.0705 49.2931 74.0702H44.586C44.5347 74.0704 44.4839 74.0808 44.4365 74.1006C44.3891 74.1205 44.3461 74.1495 44.31 74.186C44.2739 74.2225 44.2453 74.2658 44.2259 74.3133C44.2065 74.3609 44.1967 74.4118 44.197 74.4632V99.096C44.197 99.3124 44.372 99.489 44.586 99.489H49.2931C49.3444 99.4887 49.3952 99.4782 49.4426 99.4583C49.4899 99.4383 49.5328 99.4092 49.5689 99.3726C49.6049 99.3361 49.6334 99.2927 49.6527 99.2451C49.672 99.1975 49.6818 99.1466 49.6813 99.0952V88.5593H57.0188L57.0063 99.0952C57.0063 99.3124 57.1813 99.489 57.397 99.489H62.1142C62.1655 99.4887 62.2163 99.4782 62.2636 99.4583C62.311 99.4383 62.3539 99.4092 62.39 99.3726C62.426 99.3361 62.4545 99.2927 62.4738 99.2451C62.4931 99.1975 62.5028 99.1466 62.5024 99.0952V74.4624C62.503 74.4111 62.4933 74.3602 62.474 74.3126C62.4547 74.2651 62.4262 74.2218 62.3901 74.1853C62.354 74.1488 62.311 74.1199 62.2637 74.1001C62.2163 74.0804 62.1655 74.0702 62.1142 74.0702ZM25.2657 74.6304C23.5907 74.6304 22.2313 75.9999 22.2313 77.6952C22.2313 79.3882 23.5907 80.7616 25.2657 80.7616C26.9423 80.7616 28.3009 79.3882 28.3009 77.6952C28.3009 75.9999 26.9415 74.6304 25.2657 74.6304ZM27.5751 82.1366H22.8829C22.6673 82.1366 22.4751 82.3585 22.4751 82.5741V98.8648C22.4751 99.3437 22.7735 99.4859 23.1595 99.4859H27.386C27.8509 99.4859 27.9642 99.2577 27.9642 98.8569V82.5296C27.9644 82.4783 27.9545 82.4275 27.935 82.38C27.9156 82.3325 27.887 82.2893 27.8509 82.2529C27.8147 82.2165 27.7718 82.1876 27.7245 82.1677C27.6772 82.1479 27.6264 82.1376 27.5751 82.1374V82.1366ZM80.3923 82.1733H75.7204C75.6691 82.1738 75.6184 82.1843 75.5712 82.2043C75.5239 82.2243 75.4811 82.2534 75.4451 82.29C75.4091 82.3265 75.3807 82.3698 75.3614 82.4174C75.3422 82.4649 75.3325 82.5158 75.3329 82.5671V94.6452C75.3329 94.6452 74.1454 95.5124 72.4618 95.5124C70.7782 95.5124 70.3313 94.7491 70.3313 93.0999V82.5671C70.3318 82.5157 70.322 82.4648 70.3027 82.4172C70.2834 82.3696 70.2549 82.3263 70.2189 82.2897C70.1828 82.2531 70.1399 82.224 70.0926 82.204C70.0452 82.1841 69.9944 82.1737 69.9431 82.1733H65.2024C65.0987 82.1742 64.9995 82.2161 64.9266 82.2899C64.8537 82.3637 64.813 82.4633 64.8134 82.5671V93.8968C64.8134 98.7952 67.5438 99.9937 71.2993 99.9937C74.3806 99.9937 76.8649 98.2905 76.8649 98.2905C76.8649 98.2905 76.9821 99.189 77.0368 99.2944C77.0915 99.4007 77.2298 99.5077 77.3806 99.5077L80.3962 99.4944C80.4477 99.4942 80.4986 99.4839 80.5462 99.464C80.5937 99.4441 80.6368 99.415 80.673 99.3785C80.7093 99.3419 80.738 99.2986 80.7576 99.2509C80.7771 99.2032 80.787 99.1522 80.7868 99.1007L80.7845 82.5647C80.7841 82.4611 80.7428 82.3619 80.6697 82.2884C80.5966 82.215 80.4975 82.1734 80.3938 82.1726L80.3923 82.1733ZM93.1595 81.6202C90.5063 81.6202 88.7017 82.8038 88.7017 82.8038V74.4624C88.702 74.4111 88.6922 74.3603 88.6728 74.3127C88.6535 74.2652 88.625 74.222 88.5889 74.1855C88.5528 74.149 88.51 74.12 88.4627 74.1001C88.4154 74.0802 88.3647 74.0697 88.3134 74.0694H83.5938C83.5424 74.0694 83.4914 74.0796 83.4438 74.0994C83.3963 74.1192 83.3531 74.1482 83.3168 74.1847C83.2805 74.2212 83.2518 74.2645 83.2323 74.3122C83.2128 74.3599 83.2029 74.4109 83.2032 74.4624V99.0952C83.2029 99.1467 83.2128 99.1978 83.2323 99.2454C83.2518 99.2931 83.2805 99.3364 83.3168 99.373C83.3531 99.4095 83.3963 99.4385 83.4438 99.4582C83.4914 99.478 83.5424 99.4882 83.5938 99.4882H86.8688C87.0173 99.4882 87.1282 99.4124 87.2103 99.2788C87.2907 99.146 87.4087 98.1429 87.4087 98.1429C87.4087 98.1429 89.3384 99.971 92.9931 99.971C97.2821 99.971 99.7431 97.796 99.7431 90.2038C99.7431 82.6116 95.8134 81.6194 93.1587 81.6194L93.1595 81.6202ZM91.3157 95.4983C89.6962 95.4491 88.597 94.714 88.597 94.714V86.9132C88.597 86.9132 89.6814 86.2491 91.011 86.1288C92.6931 85.978 94.3142 86.4866 94.3142 90.4991C94.3142 94.7312 93.5837 95.5663 91.3165 95.4976L91.3157 95.4983ZM41.5587 95.4062C41.3532 95.4062 40.8267 95.4898 40.2853 95.4898C38.5509 95.4898 37.9626 94.6835 37.9626 93.6398V86.7132H41.4938C41.5454 86.7132 41.5965 86.703 41.6441 86.6832C41.6917 86.6633 41.7349 86.6343 41.7712 86.5977C41.8075 86.5611 41.8362 86.5176 41.8556 86.4699C41.8751 86.4221 41.8849 86.371 41.8845 86.3194V82.5257C41.8847 82.4743 41.8747 82.4233 41.8552 82.3757C41.8357 82.3282 41.8069 82.2849 41.7706 82.2485C41.7343 82.212 41.6912 82.1831 41.6437 82.1634C41.5962 82.1437 41.5453 82.1335 41.4938 82.1335H37.9626L37.9571 77.4694C37.9571 77.2921 37.8665 77.2038 37.6618 77.2038H32.8493C32.6634 77.2038 32.5626 77.2866 32.5626 77.4655V82.2858C32.5626 82.2858 30.1509 82.8679 29.9884 82.9147C29.9072 82.9384 29.836 82.9878 29.7853 83.0554C29.7345 83.123 29.7071 83.2052 29.7071 83.2898V86.3187C29.7068 86.37 29.7166 86.4208 29.736 86.4683C29.7553 86.5158 29.7838 86.5591 29.8199 86.5956C29.8559 86.6321 29.8988 86.6611 29.9461 86.681C29.9934 86.7009 30.0441 86.7113 30.0954 86.7116H32.5626V93.9991C32.5626 99.4132 36.3595 99.9444 38.922 99.9444C40.0915 99.9444 41.4923 99.5694 41.7235 99.4835C41.8642 99.4312 41.9446 99.2866 41.9446 99.1296L41.9478 95.7976C41.9462 95.6943 41.9045 95.5957 41.8317 95.5226C41.7588 95.4494 41.6604 95.4074 41.5571 95.4054L41.5587 95.4062Z" fill="white"/>
</svg>
