<svg width="100" height="100" viewBox="0 0 100 100" fill="none" xmlns="http://www.w3.org/2000/svg">
<path d="M15.2881 21.0937L21.6061 91.3429L49.9568 98.9069L78.3865 91.4858L84.7115 21.0937H15.2881ZM71.5701 37.0866L71.174 41.6444L70.9998 43.7499H37.7428L38.5373 53.1249H70.2092L69.9975 54.8679L67.9545 77.453L67.8045 78.7733L49.9998 83.5655V83.5616L49.9787 83.571L32.1842 78.9491L30.9764 65.6249H39.7014L40.3193 72.2343L49.9951 74.6866L49.9998 74.5038V74.5132L59.6967 72.4436L60.7092 61.7186H30.5881L28.4521 37.628L28.2436 35.1562H71.7779L71.5701 37.0866ZM21.8404 1.271H26.2326V5.61162H30.2514V1.271H34.6443V14.4132H30.2514V10.0124H26.2334V14.4132H21.8404V1.271ZM40.4201 5.62959H36.5529V1.271H48.6818V5.62959H44.8131V14.4132H40.4201V5.62959ZM50.6068 1.271H55.1865L58.0045 5.88896L60.8193 1.271H65.4014V14.4132H61.0256V7.89912L58.0045 12.5718H57.9279L54.9045 7.89912V14.4132H50.6061V1.271H50.6068ZM67.5881 1.271H71.9818V10.0694H78.1592V14.414H67.5881V1.271Z" fill="#E44D26"/>
</svg>
