<svg width="100" height="100" viewBox="0 0 100 100" fill="none" xmlns="http://www.w3.org/2000/svg">
<path d="M1.1001 1.1001H98.9001V98.9009H1.1001V1.1001Z" fill="#F0DB4F"/>
<path d="M90.8961 75.5748C90.1797 71.1131 87.2703 67.3654 78.6524 63.8709C75.6586 62.4951 72.3211 61.51 71.3266 59.2412C70.9734 57.9209 70.9266 57.1772 71.15 56.3779C71.7914 53.7842 74.8875 52.9756 77.3414 53.7193C78.9219 54.249 80.418 55.467 81.3203 57.41C85.5406 54.6772 85.532 54.6951 88.4789 52.817C87.4 51.1443 86.8242 50.3725 86.118 49.6568C83.5797 46.8217 80.1211 45.3615 74.5898 45.4732L71.7086 45.8459C68.9477 46.5436 66.3164 47.9928 64.7734 49.9357C60.1438 55.1889 61.4641 64.3826 67.0977 68.1662C72.6477 72.3318 80.8008 73.2795 81.8422 77.1748C82.8555 81.9436 78.3375 83.4873 73.8469 82.9389C70.5375 82.2506 68.6969 80.5686 66.707 77.51C63.0445 79.6295 63.0445 79.6295 59.2789 81.7951C60.1719 83.7475 61.1102 84.6311 62.607 86.3225C69.6914 93.5084 87.4195 93.1553 90.5992 82.2787C90.7281 81.9053 91.5844 79.4146 90.8961 75.5748ZM54.2672 46.049H45.1195L45.082 69.699C45.082 74.7287 45.3422 79.3396 44.5242 80.7529C43.1859 83.5326 39.718 83.1881 38.1375 82.649C36.5289 81.8584 35.7109 80.7342 34.7633 79.1451C34.5031 78.6889 34.3078 78.3357 34.2422 78.3084L26.8047 82.8631C28.0414 85.4014 29.8633 87.6045 32.1969 89.0357C35.6828 91.1279 40.368 91.7693 45.268 90.6443C48.457 89.7154 51.2086 87.7912 52.6492 84.8623C54.732 81.0225 54.2852 76.3748 54.2664 71.2342C54.3133 62.8475 54.2672 54.4623 54.2672 46.049Z" fill="#323330"/>
</svg>
