<svg width="100" height="100" viewBox="0 0 100 100" fill="none" xmlns="http://www.w3.org/2000/svg">
<path d="M88.1023 23.6986L53.6516 3.69473C51.4789 2.45723 48.65 2.45723 46.4602 3.69473L11.6414 23.6986C9.39922 24.9885 7.8125 27.4127 7.8125 30.0057V69.9604C7.8125 72.5533 9.44063 74.9783 11.6828 76.2752L20.882 81.5002C25.2789 83.6658 26.8328 83.6658 28.8336 83.6658C35.3438 83.6658 39.0625 79.7291 39.0625 72.8627V33.4174C39.0625 32.8604 38.7727 32.0314 38.2258 32.0314H33.8328C33.2766 32.0314 32.0312 32.8604 32.0312 33.4166V72.8619C32.0312 75.9057 29.2781 78.9346 24.1328 76.3619L14.6273 70.883C14.2961 70.7033 14.0625 70.3416 14.0625 69.9604V30.0057C14.0625 29.6291 14.4961 29.251 14.8297 29.058L49.5359 9.08848C49.8602 8.90488 50.3367 8.90488 50.6602 9.08848L84.943 29.0533C85.2711 29.251 85.1555 29.6174 85.1555 30.0057V69.9604C85.1555 70.3416 85.2984 70.7127 84.9742 70.8963L50.532 90.8775C50.2367 91.0549 49.8703 91.0549 49.5469 90.8775L40.7133 85.6049C40.4469 85.4502 40.1305 85.3947 39.875 85.5377C37.4172 86.9307 36.9641 87.1158 34.6586 87.915C34.0914 88.1127 33.2547 88.4557 34.9789 89.4221L46.5398 96.2611C47.6436 96.8986 48.8957 97.2344 50.1703 97.2346C51.4531 97.2346 52.7094 96.9018 53.8164 96.2611L88.1016 76.2752C90.3438 74.969 91.4062 72.5533 91.4062 69.9604V30.0057C91.4062 27.4127 90.3438 24.9947 88.1023 23.6986ZM60.8672 63.6291C51.7063 63.6291 49.6883 61.1018 49.0156 56.5463C48.9375 56.0557 48.5211 55.4689 48.0219 55.4689H43.5445C42.9906 55.4689 42.5453 56.1408 42.5453 56.6924C42.5453 62.5252 45.7164 69.5924 60.868 69.5924C71.8359 69.5924 78.1242 65.3307 78.1242 57.7885C78.1242 50.3104 73.0719 48.3479 62.4352 46.94C51.6836 45.5189 50.5914 44.801 50.5914 42.2822C50.5914 40.2057 51.5164 37.4361 59.4773 37.4361C66.5906 37.4361 69.2125 38.9627 70.2914 43.7572C70.3836 44.208 70.7953 44.5314 71.2602 44.5314H75.7555C76.032 44.5314 76.2961 44.4197 76.4898 44.2221C76.6773 44.0096 76.7766 43.7432 76.7516 43.4572C76.0555 35.201 70.5703 31.3533 59.4766 31.3533C49.6086 31.3533 43.7219 35.5205 43.7219 42.5057C43.7219 50.0822 49.5789 52.176 59.0516 53.1127C70.3836 54.2236 71.2648 55.8799 71.2648 58.1088C71.2648 61.9799 68.157 63.6291 60.8672 63.6291Z" fill="#83CD29"/>
</svg>
