<svg width="100" height="100" viewBox="0 0 100 100" fill="none" xmlns="http://www.w3.org/2000/svg">
<path d="M50.0029 20.0015C36.6693 20.0015 28.3389 26.6655 25.0029 39.9991C30.0014 33.3343 35.8365 30.8351 42.5014 32.5015C46.3068 33.4499 49.0264 36.2093 52.0381 39.2671C56.9397 44.2413 62.6131 49.9999 75.0029 49.9999C88.3357 49.9999 96.667 43.3351 100.003 29.9983C95.0037 36.6671 89.1693 39.1663 82.5037 37.4999C78.699 36.5507 75.9826 33.7921 72.967 30.7343C68.0686 25.7601 62.3967 20.0015 50.0029 20.0015ZM25.0029 49.9999C11.6701 49.9999 3.33887 56.6647 0.00292969 70.0015C5.00137 63.3327 10.8357 60.8335 17.5014 62.4999C21.3068 63.4491 24.0264 66.2077 27.0381 69.2655C31.9396 74.2397 37.6131 79.9983 50.0029 79.9983C63.3357 79.9983 71.667 73.3343 75.0029 60.0007C70.0037 66.6655 64.1693 69.1647 57.5037 67.4983C53.699 66.5499 50.9826 63.7905 47.967 60.7327C43.0686 55.7585 37.3967 49.9999 25.0029 49.9999Z" fill="#38B2AC"/>
</svg>
