<svg width="23" height="29" viewBox="0 0 23 29" fill="none" xmlns="http://www.w3.org/2000/svg">
<path fill-rule="evenodd" clip-rule="evenodd" d="M14.1215 1.86942C14.1215 0.836969 14.9585 0 15.991 0H20.8615C21.8939 0 22.7309 0.836969 22.7309 1.86942V6.73995C22.7309 7.77241 21.8939 8.60937 20.8615 8.60937H15.9918C14.9594 8.60937 14.1224 9.44634 14.1224 10.4788V18.5293C14.1224 19.5617 14.9594 20.3987 15.9918 20.3987H20.8546C21.8871 20.3987 22.7241 21.2356 22.7241 22.2681V27.1305C22.7241 28.1629 21.8871 28.9999 20.8546 28.9999H13.2027C12.1702 28.9999 11.3333 28.1629 11.3333 27.1305V23.3928C11.3333 22.3603 10.4963 21.5233 9.46385 21.5233H1.86942C0.836967 21.5233 0 20.6864 0 19.6539V9.27035C0 8.2379 0.836969 7.40093 1.86942 7.40093H12.2521C13.2846 7.40093 14.1215 6.56397 14.1215 5.53151V1.86942Z" fill="#F59E0B"/>
</svg>
