<svg width="1789" height="311" viewBox="0 0 1789 311" fill="none" xmlns="http://www.w3.org/2000/svg">
<path fill-rule="evenodd" clip-rule="evenodd" d="M151.088 20C151.088 8.95431 160.043 0 171.088 0H223.196C234.241 0 243.196 8.95428 243.196 20V72.1073C243.196 83.153 234.241 92.1073 223.196 92.1073H171.088C160.043 92.1073 151.088 101.062 151.088 112.107L151.088 198.236C151.088 209.282 160.043 218.236 171.088 218.236H223.107C234.153 218.236 243.107 227.191 243.107 238.236V290.256C243.107 301.302 234.153 310.256 223.107 310.256H141.243C130.197 310.256 121.243 301.302 121.243 290.256V250.268C121.243 239.223 112.288 230.268 101.243 230.268H20C8.95433 230.268 0 221.314 0 210.268V99.18C0 88.1343 8.95431 79.18 20 79.18H131.088C142.134 79.18 151.088 70.2257 151.088 59.18L151.088 20Z" fill="#F59E0B"/>
<path d="M414.395 309.728C349.195 309.728 303.195 265.728 303.195 200.928C303.195 135.728 348.395 92.1282 414.395 92.1282C466.101 92.1282 506.392 119.111 517.25 161.817C518.621 167.207 514.696 172.315 509.181 173.034L472.981 177.756C467.881 178.421 463.211 175.045 461.115 170.35C453.212 152.645 434.955 140.928 415.195 140.928C385.195 140.928 362.395 165.728 362.395 200.928C362.395 236.128 384.795 260.928 414.795 260.928C435.305 260.928 453.097 249.146 461.079 231.619C463.165 227.041 467.736 223.786 472.73 224.396L509.325 228.872C514.94 229.559 518.921 234.79 517.432 240.247C505.81 282.833 465.275 309.728 414.395 309.728Z" fill="#FDE68A"/>
<path d="M661.708 309.728C593.308 309.728 548.108 266.928 548.108 200.928C548.108 134.928 593.308 92.1282 661.708 92.1282C729.708 92.1282 775.308 134.928 775.308 200.928C775.308 267.328 729.708 309.728 661.708 309.728ZM661.708 259.328C693.308 259.328 715.708 234.928 715.708 200.928C715.708 166.928 693.308 142.928 661.708 142.928C629.708 142.928 607.308 166.928 607.308 200.928C607.308 234.928 629.708 259.328 661.708 259.328Z" fill="#FDE68A"/>
<path d="M870.023 293.328C870.023 298.851 865.546 303.328 860.023 303.328H820.823C815.301 303.328 810.823 298.851 810.823 293.328V108.528C810.823 103.005 815.301 98.5281 820.823 98.5281H859.623C865.146 98.5281 869.623 103.005 869.623 108.528V126.433C869.623 127.811 870.74 128.928 872.118 128.928C873.044 128.928 873.891 128.413 874.339 127.603C886.098 106.336 907.349 92.1282 932.823 92.1282C958.906 92.1282 983.473 106.904 994.725 129.081C995.292 130.198 996.424 130.928 997.677 130.928C998.874 130.928 999.968 130.261 1000.55 129.215C1013.14 106.614 1035.54 92.5281 1064.02 92.5281C1109.22 92.5281 1141.62 126.928 1141.62 176.528V293.328C1141.62 298.851 1137.15 303.328 1131.62 303.328H1092.42C1086.9 303.328 1082.42 298.851 1082.42 293.328V186.528C1082.42 161.728 1066.82 143.328 1044.02 142.928C1020.82 142.928 1004.82 160.928 1004.82 186.528V293.328C1004.82 298.851 1000.35 303.328 994.823 303.328H955.223C949.701 303.328 945.223 298.851 945.223 293.328V186.528C945.223 160.128 930.823 142.928 908.423 142.928C885.223 142.928 870.023 160.128 870.023 186.528V293.328Z" fill="#FDE68A"/>
<path d="M1242.68 293.328C1242.68 298.851 1238.2 303.328 1232.68 303.328H1193.48C1187.96 303.328 1183.48 298.851 1183.48 293.328V108.528C1183.48 103.005 1187.96 98.5281 1193.48 98.5281H1232.28C1237.8 98.5281 1242.28 103.005 1242.28 108.528V126.433C1242.28 127.811 1243.4 128.928 1244.77 128.928C1245.7 128.928 1246.55 128.413 1247 127.603C1258.75 106.336 1280.01 92.1282 1305.48 92.1282C1331.56 92.1282 1356.13 106.904 1367.38 129.081C1367.95 130.198 1369.08 130.928 1370.33 130.928C1371.53 130.928 1372.62 130.261 1373.21 129.215C1385.8 106.614 1408.19 92.5281 1436.68 92.5281C1481.88 92.5281 1514.28 126.928 1514.28 176.528V293.328C1514.28 298.851 1509.8 303.328 1504.28 303.328H1465.08C1459.56 303.328 1455.08 298.851 1455.08 293.328V186.528C1455.08 161.728 1439.48 143.328 1416.68 142.928C1393.48 142.928 1377.48 160.928 1377.48 186.528V293.328C1377.48 298.851 1373 303.328 1367.48 303.328H1327.88C1322.36 303.328 1317.88 298.851 1317.88 293.328V186.528C1317.88 160.128 1303.48 142.928 1281.08 142.928C1257.88 142.928 1242.68 160.128 1242.68 186.528V293.328Z" fill="#FDE68A"/>
<path d="M1588.14 70.1281C1567.34 70.1281 1552.54 55.7281 1552.54 35.3281C1552.54 15.3281 1567.34 0.528137 1588.14 0.528137C1608.94 0.528137 1623.74 15.3281 1623.74 35.3281C1623.74 55.7281 1608.94 70.1281 1588.14 70.1281ZM1617.74 293.328C1617.74 298.851 1613.26 303.328 1607.74 303.328H1568.54C1563.01 303.328 1558.54 298.851 1558.54 293.328V108.528C1558.54 103.005 1563.01 98.5281 1568.54 98.5281H1607.74C1613.26 98.5281 1617.74 103.005 1617.74 108.528V293.328Z" fill="#FDE68A"/>
<path d="M1748.33 309.728C1707.13 309.728 1680.73 280.528 1680.73 237.328V151.728C1680.73 146.205 1676.25 141.728 1670.73 141.728H1661.93C1656.41 141.728 1651.93 137.251 1651.93 131.728V108.528C1651.93 103.005 1656.41 98.5281 1661.93 98.5281H1673.96C1678.8 98.5281 1682.95 95.0576 1683.8 90.2902L1692.45 41.966C1693.31 37.1987 1697.46 33.7281 1702.3 33.7281H1730.27C1735.81 33.7281 1740.3 38.243 1740.27 43.7899L1739.99 88.4664C1739.96 94.0133 1744.44 98.5281 1749.99 98.5281H1776.73C1782.25 98.5281 1786.73 103.005 1786.73 108.528V131.728C1786.73 137.251 1782.25 141.728 1776.73 141.728H1749.93C1744.41 141.728 1739.93 146.205 1739.93 151.728V234.928C1739.93 252.128 1750.33 263.728 1767.13 263.728C1769.58 263.728 1772.65 263.498 1775.9 263.104C1782.3 262.328 1788.33 267.106 1788.33 273.554V296.199C1788.33 300.465 1785.63 304.296 1781.5 305.36C1770.75 308.127 1757.81 309.728 1748.33 309.728Z" fill="#FDE68A"/>
</svg>
